<?xml version="1.0" standalone="no"?>
<!DOCTYPE svg PUBLIC "-//W3C//DTD SVG 20010904//EN"
 "http://www.w3.org/TR/2001/REC-SVG-20010904/DTD/svg10.dtd">
<svg version="1.0" xmlns="http://www.w3.org/2000/svg"
 width="1197.000000pt" height="1280.000000pt" viewBox="0 0 1197.000000 1280.000000"
 preserveAspectRatio="xMidYMid meet">
<metadata>
Created by potrace 1.15, written by Peter Selinger 2001-2017
</metadata>
<g transform="translate(0.000000,1280.000000) scale(0.100000,-0.100000)"
fill="#000000" stroke="none">
<path d="M162 12785 c-218 -68 -214 -354 10 -885 79 -185 248 -524 331 -662
263 -434 671 -952 1057 -1338 218 -218 642 -565 1049 -858 112 -81 261 -193
330 -249 409 -327 647 -643 739 -981 23 -88 26 -114 26 -287 1 -219 -9 -281
-80 -494 -100 -302 -281 -621 -614 -1081 -208 -287 -239 -338 -261 -423 -8
-34 -8 -54 1 -81 15 -46 79 -126 129 -160 62 -43 82 -33 131 67 22 45 43 96
46 114 l6 32 -48 3 c-46 3 -49 5 -54 33 -5 26 -9 30 -40 30 -26 0 -37 6 -49
27 -18 31 -6 95 21 112 20 12 55 -17 146 -126 31 -38 60 -68 64 -68 11 0 684
561 1023 854 520 449 1632 1413 1995 1731 635 555 1014 875 1035 875 5 0 -44
-54 -108 -119 -65 -66 -117 -126 -117 -135 0 -11 9 -16 29 -16 21 0 47 -15 88
-49 211 -178 893 -942 893 -1000 0 -20 -28 -11 -77 25 -83 63 -227 211 -456
469 -274 309 -447 488 -493 510 -35 16 -36 16 -75 -11 -131 -90 -530 -446
-802 -715 -188 -185 -198 -197 -186 -217 12 -19 11 -24 -3 -39 -15 -14 -21
-15 -41 -4 -20 11 -29 11 -48 0 -97 -51 -610 -485 -838 -708 l-103 -102 6
-152 c9 -201 21 -327 52 -532 51 -347 64 -466 74 -699 12 -285 13 -290 49
-283 22 4 15 -5 -39 -55 -78 -71 -139 -109 -181 -112 -18 -1 -38 -11 -45 -21
-22 -30 -16 -37 16 -20 25 13 30 13 30 2 0 -22 -34 -47 -66 -47 -37 0 -93 -32
-199 -115 -47 -37 -85 -62 -85 -57 0 5 7 16 17 23 23 20 93 109 93 120 0 19
-34 8 -81 -26 -27 -19 -49 -32 -49 -29 0 4 31 41 69 83 101 112 151 188 151
228 0 29 -3 33 -27 33 -44 -1 -99 -31 -213 -115 -58 -43 -93 -65 -79 -49 14
16 56 63 93 104 74 82 105 130 83 130 -19 0 -55 -27 -127 -95 -122 -116 -176
-120 -77 -5 145 169 167 200 138 200 -12 0 -115 -86 -161 -134 -39 -42 -98
-81 -107 -72 -8 8 35 68 116 159 94 105 117 177 56 177 -38 0 -93 -31 -163
-94 -55 -49 -109 -86 -127 -86 -23 0 10 47 100 141 61 64 105 118 105 130 0
26 -20 15 -91 -49 -102 -91 -143 -122 -160 -122 -35 0 -5 45 98 148 57 57 103
108 103 113 0 18 -33 9 -69 -18 -20 -15 -63 -53 -97 -84 -163 -151 -163 -100
0 80 73 80 87 101 67 101 -15 0 -111 -68 -141 -100 -26 -28 -60 -40 -60 -22 0
4 38 45 85 91 59 57 85 90 85 106 0 26 -52 75 -80 75 -29 0 -55 -46 -40 -70 7
-11 14 -12 36 -2 14 7 29 10 32 7 7 -7 -115 -125 -129 -125 -5 0 0 18 11 40
11 21 25 74 31 117 15 103 28 123 80 123 147 0 464 -292 655 -603 77 -125 135
-197 192 -235 21 -14 25 -14 39 1 15 14 14 26 -10 139 -15 68 -29 146 -33 173
-15 123 -55 230 -115 307 -61 76 -64 97 -63 388 2 379 21 510 88 605 20 27 33
51 31 53 -12 12 -163 -109 -570 -458 -170 -146 -447 -380 -615 -520 -456 -381
-514 -440 -550 -560 -14 -49 -28 -74 -47 -88 l-27 -20 27 -41 c40 -61 104
-134 496 -575 418 -469 544 -602 825 -871 277 -266 389 -405 1331 -1650 897
-1186 1179 -1541 1413 -1779 169 -171 240 -215 408 -251 l80 -17 55 27 c164
84 623 433 1069 816 376 322 670 601 670 636 0 12 -12 31 -27 43 l-28 21 37
-6 c42 -7 69 5 163 68 109 74 258 200 386 327 128 126 165 177 156 211 -4 15
0 19 23 19 77 0 434 288 442 356 2 20 9 28 25 29 12 1 40 14 62 28 136 90 514
460 529 518 7 29 14 35 43 39 31 5 34 8 37 43 3 33 6 37 23 32 52 -17 216 111
241 188 11 37 16 42 43 42 39 0 112 53 198 145 64 68 104 126 93 137 -12 13
16 42 51 53 62 20 75 37 73 95 -3 71 -3 73 25 67 21 -4 25 -1 25 20 0 44 -67
161 -148 258 -201 244 -721 794 -1972 2090 -658 682 -1021 1072 -1077 1160
-20 30 -68 89 -108 130 -40 41 -89 102 -108 135 -43 73 -119 165 -331 400
-399 442 -897 951 -1006 1027 -83 58 -127 72 -204 66 -83 -7 -158 -46 -435
-227 -277 -181 -344 -220 -541 -315 -168 -82 -342 -144 -496 -178 -81 -18
-132 -22 -274 -22 -159 -1 -185 2 -281 27 -301 78 -553 238 -852 540 -309 312
-552 644 -1121 1526 -324 503 -373 575 -519 762 -162 208 -286 349 -477 540
-320 321 -453 415 -896 637 -480 240 -792 330 -962 277z m-35 -87 c6 -7 13
-53 16 -103 7 -128 97 -463 151 -561 20 -37 55 -78 61 -72 3 3 -2 25 -10 49
-24 67 -83 293 -101 389 -20 108 -23 224 -6 241 20 21 32 -1 43 -77 22 -157
30 -195 64 -303 53 -165 131 -343 170 -387 19 -22 34 -33 35 -25 0 7 -24 79
-54 161 -108 295 -147 480 -101 480 18 0 34 -43 51 -143 39 -230 191 -566 462
-1021 245 -412 458 -706 653 -902 69 -70 100 -108 100 -125 1 -47 10 -69 30
-80 20 -10 21 -9 15 17 -7 25 -6 26 11 14 34 -27 119 -105 353 -326 271 -256
443 -406 950 -834 588 -496 680 -587 765 -764 42 -88 52 -130 35 -151 -16 -19
-40 -2 -40 29 -1 60 -102 235 -210 361 -56 66 -125 125 -147 125 -23 0 6 -45
97 -150 94 -109 144 -179 136 -187 -3 -3 -27 18 -53 48 -59 67 -180 189 -252
252 -29 27 -51 50 -48 53 3 3 21 1 41 -4 28 -8 36 -8 36 3 0 20 -44 51 -98 70
-79 28 -92 37 -92 60 0 52 -98 121 -156 110 -43 -9 -120 43 -132 87 -5 23 -18
38 -42 50 -36 18 -91 24 -104 11 -5 -5 39 -52 96 -105 56 -54 99 -98 93 -98
-12 0 -381 259 -535 374 -147 111 -248 196 -370 309 -60 57 -116 101 -132 104
-76 15 -545 502 -919 953 -300 363 -535 732 -610 963 -16 50 -47 122 -68 161
-72 131 -155 413 -201 679 -24 142 -27 277 -6 277 7 0 18 -6 23 -12z m601
-292 c132 -45 412 -196 537 -288 426 -318 1358 -1327 1608 -1742 26 -44 56
-109 67 -145 34 -114 138 -267 186 -273 20 -2 29 -12 39 -41 22 -66 74 -142
326 -478 382 -510 521 -656 804 -844 310 -208 619 -305 963 -305 169 0 278 14
432 55 52 13 114 25 138 25 83 0 62 -25 -243 -280 -372 -311 -939 -807 -1445
-1264 -200 -181 -563 -494 -621 -535 -80 -59 -72 -30 53 181 144 245 253 500
313 733 53 205 68 340 62 540 -10 308 -81 541 -236 772 -87 130 -194 238 -390
396 -97 78 -270 223 -386 322 -275 236 -368 313 -435 360 -191 135 -512 439
-749 710 -469 536 -883 1122 -1081 1530 -159 327 -206 523 -140 577 32 26 112
23 198 -6z m1953 -1613 c26 -27 91 -104 146 -173 55 -69 135 -165 179 -215 97
-110 193 -244 442 -616 201 -299 231 -353 232 -406 0 -27 7 -37 41 -59 35 -22
40 -29 36 -53 -5 -22 0 -29 23 -43 16 -9 50 -49 75 -88 25 -39 53 -73 63 -76
50 -15 93 -48 228 -176 318 -300 579 -422 969 -453 89 -7 275 7 404 31 174 33
308 77 628 208 204 83 231 86 156 14 -117 -110 -358 -218 -600 -269 -390 -82
-762 -59 -1101 67 -229 85 -349 170 -592 420 -348 357 -620 725 -594 806 4 13
-1 21 -18 27 -47 18 -180 182 -381 468 -126 179 -321 475 -366 554 -52 92 -40
105 30 32z m4087 -1838 c2 -18 22 -45 53 -76 58 -56 58 -75 5 -109 -40 -24
-56 -19 -89 23 -65 86 -72 133 -26 172 37 31 53 28 57 -10z m703 -158 c182
-168 660 -661 792 -820 55 -65 67 -90 48 -101 -26 -16 -241 175 -487 434 -201
211 -438 472 -480 530 -35 47 -43 80 -21 80 8 0 74 -55 148 -123z m-142 -44
c115 -115 363 -383 665 -718 114 -127 160 -193 151 -217 -3 -8 -26 -25 -51
-38 -40 -20 -49 -21 -71 -9 -84 45 -711 770 -861 996 -32 49 -34 55 -22 83 23
56 49 43 189 -97z m-715 4 c72 -69 74 -129 3 -135 -31 -3 -42 3 -86 46 -32 30
-51 57 -51 71 0 75 66 84 134 18z m-129 -128 c65 -76 76 -92 64 -103 -8 -7
-153 -129 -324 -271 -413 -345 -607 -510 -805 -685 -179 -158 -370 -322 -575
-495 -71 -61 -191 -164 -265 -230 -248 -222 -1215 -1061 -1386 -1203 l-61 -51
-76 77 c-42 43 -77 80 -77 84 0 3 96 89 213 189 582 503 1169 1013 1712 1489
330 289 663 580 740 646 178 153 757 644 759 644 1 0 37 -41 81 -91z m481
-111 c82 -85 190 -207 294 -333 41 -49 136 -154 212 -231 76 -78 138 -148 138
-157 0 -8 47 -68 105 -132 99 -111 122 -150 72 -124 -99 52 -802 835 -872 970
-24 45 -35 79 -27 79 4 0 39 -33 78 -72z m-331 -618 c7 -12 -66 -90 -84 -90
-6 0 -11 11 -11 25 0 45 76 96 95 65z m-520 -20 c37 -41 4 -86 -206 -284 -130
-123 -214 -214 -205 -223 9 -9 70 41 186 151 113 107 185 164 195 154 10 -10
-76 -114 -217 -263 -78 -82 -133 -143 -123 -134 69 55 250 212 303 263 85 82
107 118 90 145 -16 25 -6 43 42 80 l33 26 -6 -30 c-3 -16 -9 -38 -12 -47 -6
-15 -1 -18 30 -18 l36 0 -23 -32 c-12 -18 -104 -117 -204 -220 -218 -224 -242
-253 -227 -277 6 -10 9 -30 6 -45 -6 -28 -6 -28 23 -13 29 15 136 103 319 262
187 163 283 217 302 169 7 -18 -30 -61 -61 -70 -48 -15 -206 -156 -377 -337
-73 -78 -124 -135 -114 -126 11 9 101 85 200 169 202 170 304 250 323 250 46
0 -30 -82 -284 -307 -179 -159 -271 -249 -261 -259 11 -11 83 47 382 311 117
104 247 206 253 200 9 -9 -81 -104 -302 -319 -223 -215 -285 -282 -239 -258
10 6 52 40 93 75 41 36 122 107 180 157 120 104 335 270 351 270 17 0 -79
-106 -228 -250 -161 -157 -248 -249 -241 -256 9 -8 106 70 296 239 101 89 202
174 224 190 40 27 78 36 78 18 0 -10 -142 -143 -400 -373 -191 -171 -317 -294
-308 -303 7 -7 102 64 203 151 257 224 404 349 430 367 l30 21 -19 -25 c-11
-13 -128 -132 -261 -264 -232 -232 -323 -330 -313 -340 7 -7 133 100 354 302
198 181 352 312 367 313 25 1 -24 -53 -288 -315 -162 -160 -295 -296 -295
-301 0 -6 13 -9 30 -6 51 7 52 -29 3 -98 l-18 -25 35 25 c123 86 483 390 709
599 208 192 283 243 314 212 8 -8 7 -17 -3 -36 -27 -51 -235 -239 -695 -630
-258 -220 -573 -488 -700 -595 -427 -364 -685 -573 -685 -553 0 4 30 41 65 82
108 123 71 105 -121 -60 -64 -55 -120 -99 -125 -99 -11 0 14 52 43 90 10 14
81 88 158 165 111 113 140 149 149 182 6 23 36 74 66 114 30 40 55 76 55 81 0
24 -48 2 -98 -45 -80 -75 -179 -157 -237 -197 -36 -24 1 19 135 155 137 141
180 190 167 193 -18 4 -62 -30 -245 -189 -52 -44 -96 -78 -99 -75 -7 6 56 81
171 205 109 117 145 159 121 140 -18 -15 -294 -232 -340 -268 -21 -16 50 61
181 199 92 96 174 196 174 211 0 7 -12 8 -30 4 -16 -4 -30 -4 -30 0 0 3 22 32
48 64 62 74 79 113 63 147 -21 46 -38 41 -114 -33 -76 -74 -243 -215 -277
-233 -24 -13 -27 2 -4 21 25 20 74 96 74 113 0 25 -11 20 -75 -33 -33 -27 -61
-48 -63 -46 -7 7 48 83 74 104 17 13 41 21 66 21 46 0 65 9 137 63 52 40 141
140 141 158 0 5 -16 9 -35 9 -22 0 -38 6 -41 15 -4 8 -12 15 -19 15 -20 0
-106 -71 -233 -193 -63 -60 -118 -105 -122 -101 -12 13 34 273 55 314 10 19
32 53 50 75 43 53 58 82 45 90 -10 6 -65 -19 -75 -35 -3 -5 -11 -10 -16 -10
-5 0 17 31 50 70 70 81 99 130 78 130 -18 0 -96 -52 -126 -84 -14 -14 -29 -26
-34 -26 -12 0 68 88 107 118 18 13 44 22 66 22 21 0 50 10 72 25 46 31 93 121
84 162 -9 43 44 125 148 228 113 112 233 195 283 195 19 0 50 7 67 15 41 20
134 102 178 157 l33 42 -68 -52 c-38 -29 -77 -52 -88 -52 -18 0 -19 2 -5 28
15 29 85 98 126 126 33 21 63 20 85 -4z m619 -66 c26 -25 20 -76 -15 -123 -17
-24 -29 -45 -26 -47 2 -2 23 3 47 11 50 18 50 18 50 5 0 -13 -70 -90 -82 -90
-12 0 -38 63 -38 95 0 26 20 76 42 107 19 26 6 30 -42 13 -53 -19 -64 -11 -27
21 32 28 69 31 91 8z m1670 10 c29 -11 17 -22 -76 -68 -165 -81 -368 -253
-368 -311 0 -17 -5 -25 -12 -22 -44 15 -263 -147 -583 -432 -82 -73 -231 -200
-330 -282 -99 -81 -250 -209 -335 -285 -208 -185 -499 -434 -885 -759 -176
-148 -458 -387 -626 -530 -168 -143 -395 -334 -505 -423 -235 -193 -324 -277
-324 -305 0 -11 16 -36 36 -54 39 -35 37 -50 -8 -74 -18 -9 -19 -7 -12 25 5
32 3 37 -19 45 -67 26 -138 -33 -228 -190 -28 -49 -57 -93 -65 -100 -16 -13
-18 -5 -14 81 5 139 112 247 765 770 637 511 1114 919 1656 1415 277 254 434
389 1204 1037 116 96 187 142 224 143 18 0 27 8 35 30 19 53 47 84 129 146
141 106 282 166 341 143z m78 -106 c20 -16 98 -128 98 -141 0 -5 -17 5 -37 23
-49 43 -129 80 -175 80 -47 0 -48 -11 -4 -32 45 -22 102 -73 109 -97 7 -27
-19 -61 -46 -61 -35 1 -98 34 -149 80 -73 64 -66 82 49 130 74 31 130 37 155
18z m-1612 -128 c0 -21 -96 -90 -125 -90 -15 0 20 44 57 70 42 30 68 38 68 20z
m-691 -121 c-115 -124 -296 -289 -316 -289 -22 0 -15 15 45 83 86 99 357 335
370 322 2 -2 -42 -54 -99 -116z m1989 86 c12 -14 33 -25 46 -25 33 0 73 -35
81 -69 13 -58 -56 -135 -115 -129 -32 4 -37 31 -11 64 27 34 27 54 1 54 -24 0
-37 27 -21 43 20 20 12 30 -21 24 -18 -3 -41 -8 -50 -12 -27 -11 -22 6 13 43
36 39 49 40 77 7z m-1208 -9 c0 -32 -124 -146 -159 -146 -23 0 -10 47 22 77
30 30 113 83 130 83 4 0 7 -6 7 -14z m1731 -26 c52 -28 -9 -104 -215 -267
-181 -144 -271 -220 -506 -424 -248 -215 -463 -395 -810 -679 -462 -377 -592
-487 -915 -770 -154 -135 -392 -339 -530 -455 -396 -334 -950 -838 -1209
-1100 -104 -105 -106 -103 -78 49 19 106 18 104 93 130 56 20 201 135 594 472
160 137 468 398 685 579 217 182 600 506 850 720 250 215 624 529 830 700 759
626 1054 885 1008 885 -37 0 -216 -137 -523 -400 -104 -89 -345 -289 -535
-443 -541 -440 -773 -633 -940 -782 -226 -201 -566 -492 -1065 -910 -242 -203
-504 -424 -582 -491 -154 -133 -291 -244 -301 -244 -31 0 331 317 1308 1146
195 166 490 420 655 565 1039 911 1840 1561 2090 1696 68 37 69 37 96 23z
m-1694 -115 c-3 -94 11 -114 68 -95 20 7 39 10 41 7 8 -8 -118 -138 -130 -134
-7 2 -11 33 -11 80 0 85 -10 106 -44 87 -56 -29 -41 39 20 95 21 19 43 35 49
35 5 0 8 -32 7 -75z m168 -196 c-69 -69 -120 -109 -140 -109 -3 0 -5 13 -5 29
0 21 11 39 41 66 37 33 147 93 174 95 5 0 -26 -36 -70 -81z m1595 15 c30 -20
47 -25 70 -21 l30 7 0 -51 c0 -59 14 -88 76 -160 50 -59 82 -115 71 -126 -24
-24 -297 313 -297 367 0 15 6 13 50 -16z m-3454 -59 c19 -15 18 -16 -10 -41
-37 -33 -70 -29 -74 9 -3 21 2 29 20 36 33 14 42 13 64 -4z m3342 -168 c246
-253 552 -606 552 -638 0 -5 -5 -9 -10 -9 -17 0 -235 216 -395 391 -223 244
-322 370 -309 391 10 15 43 -13 162 -135z m-1726 26 c-50 -70 -460 -455 -554
-519 -36 -25 -40 -26 -55 -11 -14 13 -14 21 -5 42 6 14 17 25 23 25 16 0 116
82 264 216 190 171 334 288 343 279 2 -2 -5 -16 -16 -32z m1499 -167 c88 -75
258 -249 284 -291 27 -42 59 -78 311 -350 327 -353 379 -418 338 -432 -24 -8
-106 71 -390 378 -348 376 -411 449 -431 498 -9 20 -55 77 -103 126 -48 50
-93 100 -99 113 -21 41 12 25 90 -42z m970 -203 c326 -330 660 -679 1058
-1103 168 -179 477 -507 686 -730 559 -593 675 -724 675 -761 0 -53 -68 -1
-213 166 -201 231 -382 425 -993 1070 -711 751 -908 960 -1043 1113 -76 87
-187 209 -246 272 -106 112 -205 227 -205 236 0 17 47 -27 281 -263z m-763
179 c68 -69 194 -219 214 -257 15 -28 -88 70 -201 190 -103 110 -121 135 -97
135 8 0 46 -31 84 -68z m-1177 -11 c-6 -11 -71 -76 -145 -146 -120 -113 -186
-187 -186 -208 0 -19 33 -2 91 49 35 31 73 60 84 65 40 20 -159 -162 -515
-471 -201 -174 -462 -401 -580 -505 -118 -103 -321 -276 -450 -385 -129 -109
-275 -234 -325 -278 -136 -122 -164 -133 -202 -76 -13 20 -17 48 -18 108 0 71
2 81 18 80 12 -1 25 15 43 52 16 34 48 74 87 110 62 56 150 114 175 114 7 0
28 -16 46 -35 38 -39 71 -45 116 -19 38 23 60 64 60 113 0 23 9 59 20 80 67
133 406 465 674 664 143 105 225 148 302 157 104 13 142 62 119 156 -6 28 -2
37 31 73 48 54 113 92 164 97 51 5 95 27 195 100 131 95 176 124 191 124 11 0
12 -4 5 -19z m1687 -68 c33 -32 177 -184 318 -338 142 -154 470 -507 730 -785
259 -278 556 -599 659 -715 230 -256 350 -375 387 -382 22 -4 28 -11 28 -33 0
-34 73 -144 228 -344 65 -83 131 -168 146 -188 92 -123 -120 73 -349 322 -178
194 -245 272 -326 381 -68 92 -649 742 -887 993 -211 222 -337 330 -315 269 3
-10 11 -24 16 -31 5 -7 8 -15 5 -18 -15 -15 -328 297 -328 328 0 21 25 0 134
-109 108 -108 143 -134 117 -84 -20 36 -163 210 -321 391 -160 182 -320 378
-320 392 0 18 20 5 78 -49z m-772 -125 c156 -159 934 -1021 1230 -1363 159
-184 183 -225 130 -225 -38 0 -82 36 -158 132 -166 206 -605 700 -958 1078
-95 102 -208 228 -252 280 -207 244 -201 312 8 98z m-174 -120 c143 -177 308
-358 908 -998 364 -388 571 -614 705 -770 54 -63 156 -174 226 -245 80 -81
135 -146 146 -172 10 -24 33 -52 52 -65 42 -28 149 -148 320 -358 199 -245
320 -364 351 -345 23 14 7 -15 -29 -56 l-39 -44 -42 40 c-65 62 -386 429 -513
588 -63 78 -165 195 -226 260 -106 112 -141 160 -141 190 0 7 -60 74 -133 148
-288 290 -1281 1382 -1536 1687 -110 133 -174 242 -141 242 5 0 46 -46 92
-102z m-2882 12 c-84 -95 -124 -128 -128 -107 -6 29 18 57 99 118 45 32 83 59
86 59 3 0 -23 -31 -57 -70z m2727 -44 c27 -29 144 -154 262 -277 240 -252 311
-334 671 -774 140 -170 319 -386 399 -479 280 -324 350 -411 339 -421 -13 -13
-376 384 -663 725 -76 91 -171 201 -210 245 -40 44 -161 186 -270 315 -110
129 -276 323 -370 431 -193 222 -285 333 -285 343 0 13 78 -53 127 -108z
m-151 9 c19 -14 80 -81 136 -148 56 -67 211 -248 343 -402 381 -444 429 -504
418 -531 -16 -43 -84 20 -302 281 -96 115 -239 284 -316 375 -203 239 -335
414 -335 444 0 13 25 5 56 -19z m1053 -7 c55 -47 187 -192 364 -398 254 -296
217 -278 -73 35 -275 297 -413 469 -291 363z m-3469 -52 c0 -7 -17 -33 -38
-57 -66 -77 -82 -101 -82 -126 0 -18 -32 -57 -117 -144 -64 -65 -121 -119
-126 -119 -5 0 28 39 73 87 84 89 137 159 127 169 -9 9 -60 -22 -113 -68 -85
-75 -91 -75 -27 -3 100 113 273 275 295 275 4 0 8 -6 8 -14z m2262 -102 c141
-130 551 -566 779 -830 99 -114 219 -262 219 -270 0 -51 -625 597 -1009 1046
-76 89 -94 120 -71 120 5 0 42 -30 82 -66z m-26 -196 c77 -84 275 -304 439
-488 165 -184 428 -474 584 -645 365 -398 457 -513 431 -539 -16 -16 -75 40
-275 260 -104 116 -264 291 -354 390 -91 98 -211 233 -268 300 -102 120 -132
144 -177 144 -18 0 -25 7 -29 28 -7 33 -110 169 -274 362 -186 219 -268 340
-231 340 8 0 77 -69 154 -152z m1606 100 c240 -200 1077 -1144 1483 -1673 162
-212 238 -303 371 -445 179 -193 237 -271 215 -293 -13 -13 -37 3 -129 88 -94
87 -261 288 -527 630 -338 436 -513 641 -1103 1292 -341 376 -406 453 -384
453 6 0 39 -24 74 -52z m-1903 -125 c73 -58 351 -335 490 -488 70 -77 182
-207 248 -290 67 -82 192 -229 278 -325 87 -96 203 -229 258 -294 55 -65 145
-169 200 -230 55 -61 179 -205 275 -321 212 -253 377 -446 529 -617 125 -142
383 -450 454 -543 51 -66 83 -124 75 -132 -17 -18 -119 78 -270 252 -67 77
-172 194 -234 259 -182 192 -398 469 -421 539 -8 22 -21 36 -40 44 -21 8 -32
21 -40 47 -12 45 -44 82 -151 177 -50 43 -88 86 -97 108 -20 47 -95 139 -234
287 -177 186 -294 315 -439 484 -266 307 -586 662 -787 872 -105 109 -174 208
-147 208 4 0 28 -17 53 -37z m-3364 -3 c0 -24 -39 -55 -57 -44 -14 9 -9 42 8
59 23 23 49 15 49 -15z m3358 -303 c340 -358 808 -889 1197 -1357 112 -135
288 -342 390 -460 296 -341 351 -413 333 -431 -6 -6 -46 28 -104 88 -147 154
-1295 1473 -1380 1586 -42 56 -145 174 -229 262 -216 225 -410 461 -410 498 0
19 66 -41 203 -186z m-221 -54 c129 -126 306 -322 467 -518 134 -164 164 -208
159 -231 -4 -25 -93 59 -286 271 -265 290 -482 549 -482 576 0 27 43 -3 142
-98z m-167 -55 c80 -87 340 -400 646 -778 534 -659 970 -1169 1414 -1655 71
-77 182 -202 247 -278 360 -419 559 -720 336 -508 -74 69 -151 161 -295 348
-43 55 -191 226 -329 380 -619 689 -1139 1296 -1594 1863 -317 395 -536 700
-501 700 5 0 39 -33 76 -72z m2462 37 c24 -24 33 -40 29 -53 -8 -24 11 -40 78
-67 28 -12 50 -27 48 -34 -4 -21 36 -69 184 -222 180 -186 243 -275 172 -242
-84 39 -531 505 -587 611 -27 52 26 57 76 7z m-4128 -21 c-58 -63 -244 -203
-255 -192 -2 3 27 35 67 72 105 98 257 194 188 120z m1533 -211 c125 -122 316
-340 668 -763 112 -135 245 -292 295 -350 51 -58 116 -137 146 -176 30 -40
121 -143 201 -230 175 -190 233 -262 264 -330 30 -67 124 -183 342 -424 456
-501 770 -895 740 -926 -19 -18 -109 76 -288 301 -138 172 -245 296 -434 500
-318 343 -570 685 -551 746 5 15 2 19 -17 19 -13 0 -35 7 -48 16 -86 57 -316
319 -770 874 -102 124 -274 333 -383 464 -189 226 -277 338 -298 378 -23 42
18 11 133 -99z m-3459 78 c91 -35 269 -234 710 -795 155 -196 156 -199 139
-221 -9 -12 -61 -73 -116 -136 -54 -63 -117 -140 -139 -171 -23 -32 -49 -58
-58 -58 -28 0 -86 56 -274 263 -99 110 -256 280 -350 380 -93 99 -196 208
-227 242 l-56 61 50 120 c57 135 81 174 108 174 30 0 83 -53 235 -235 166
-199 304 -354 428 -480 75 -76 61 -57 -93 130 -378 457 -493 632 -459 697 21
39 52 48 102 29z m3289 -98 c57 -62 238 -281 523 -633 316 -391 624 -760 1050
-1255 375 -437 464 -545 484 -582 38 -74 -99 45 -259 223 -68 77 -181 198
-250 269 -69 72 -220 240 -335 375 -115 135 -244 284 -287 332 -43 48 -78 94
-78 101 0 18 -126 184 -425 557 -334 418 -453 578 -475 634 -14 39 2 32 52
-21z m-2419 -38 c-13 -22 -185 -195 -195 -195 -4 0 -8 3 -8 8 0 6 201 202 208
202 2 0 -1 -7 -5 -15z m1378 -29 c12 -26 1 -77 -19 -84 -17 -5 -45 56 -38 84
8 32 43 32 57 0z m1021 -148 c74 -90 248 -305 388 -478 327 -406 405 -500 630
-760 377 -435 502 -591 487 -607 -8 -7 -134 123 -408 422 -141 154 -304 332
-362 395 -59 63 -121 139 -139 168 -18 29 -78 108 -133 175 -55 67 -149 187
-209 267 -61 80 -167 217 -236 305 -70 88 -136 176 -148 196 -23 37 -29 79
-13 79 6 0 70 -73 143 -162z m2302 -73 c177 -180 411 -441 1041 -1164 629
-721 635 -728 635 -747 0 -43 -93 17 -211 135 -58 58 -206 228 -329 376 -250
301 -504 598 -775 905 -339 384 -545 631 -545 651 0 20 66 -36 184 -156z
m-2209 -355 c110 -129 248 -291 305 -360 141 -169 360 -416 690 -775 372 -405
474 -519 528 -590 56 -74 127 -154 323 -366 156 -170 176 -197 165 -224 -11
-30 -42 -10 -115 75 -41 47 -196 216 -346 375 -1022 1089 -1947 2173 -1945
2279 1 29 141 -118 395 -414z m1979 349 c16 -23 11 -49 -8 -49 -15 0 -39 48
-31 61 10 15 23 11 39 -12z m-4194 -38 c0 -35 -200 -231 -236 -231 -34 0 43
99 140 181 65 55 96 71 96 50z m4401 -159 c110 -117 944 -1070 1140 -1302 340
-404 445 -550 396 -550 -21 0 -172 161 -318 340 -257 315 -445 537 -759 900
-448 518 -600 702 -600 729 0 21 53 -23 141 -117z m-2572 -45 c143 -155 449
-509 488 -566 33 -48 44 -101 20 -101 -8 0 -21 17 -29 38 -17 41 -80 117 -293
352 -223 247 -355 408 -355 432 0 17 62 -41 169 -155z m3700 72 c18 -11 78
-64 134 -117 196 -190 424 -468 489 -596 34 -68 118 -159 254 -277 109 -95
154 -148 161 -193 12 -77 -65 -44 -147 64 -32 42 -120 153 -197 246 -146 179
-204 260 -220 309 -9 26 -15 30 -41 27 -29 -2 -31 0 -23 21 11 29 6 37 -42 61
-72 37 -427 425 -427 467 0 15 23 10 59 -12z m645 -224 c278 -309 524 -601
514 -610 -16 -16 -640 694 -736 838 -30 44 63 -51 222 -228z m-892 200 c25
-19 92 -88 150 -153 106 -117 149 -168 478 -552 96 -113 238 -275 316 -360
157 -173 234 -273 234 -301 0 -17 -3 -18 -22 -8 -39 21 -118 101 -262 264
-185 210 -673 759 -804 905 -167 184 -221 307 -90 205z m-1871 -172 c237 -246
624 -751 597 -778 -10 -10 -85 33 -107 61 -12 15 -21 36 -21 48 0 23 -17 44
-209 262 -219 249 -398 484 -385 505 9 15 36 -6 125 -98z m-1893 78 c51 -26
193 -175 344 -361 127 -156 184 -222 443 -516 174 -197 575 -679 1015 -1219
183 -225 409 -498 500 -605 208 -243 240 -285 240 -316 0 -82 -75 3 -835 936
-594 730 -672 820 -955 1115 -111 115 -248 281 -450 545 -52 67 -127 158 -166
201 -46 50 -74 89 -78 110 -4 21 -24 50 -56 81 -56 53 -56 57 -2 29z m-137
-133 c23 -18 72 -69 108 -113 79 -98 767 -901 1215 -1420 686 -793 1276 -1522
1276 -1575 0 -31 -27 -24 -39 11 -6 17 -25 49 -43 72 -86 110 -803 938 -1193
1377 -827 932 -1395 1610 -1395 1666 0 23 25 16 71 -18z m461 -20 c30 -32 73
-107 65 -114 -7 -8 -117 114 -117 130 0 25 19 19 52 -16z m-536 -120 c31 -29
118 -129 192 -223 75 -93 172 -208 217 -255 44 -47 112 -130 150 -184 123
-177 254 -331 500 -586 136 -142 177 -191 480 -583 79 -103 276 -345 436 -538
491 -591 699 -857 699 -892 0 -28 -195 195 -685 783 -181 217 -561 672 -845
1010 -1006 1199 -1230 1474 -1230 1512 0 21 33 4 86 -44z m-167 -34 c12 -15
21 -33 21 -41 0 -31 31 -73 53 -73 49 0 225 -194 244 -270 6 -23 18 -39 35
-48 45 -22 273 -288 738 -862 616 -760 1136 -1385 1359 -1633 214 -237 244
-278 223 -299 -13 -13 -95 47 -146 107 -51 59 -109 100 -130 92 -10 -4 -12 0
-9 14 14 51 -267 402 -997 1249 -298 345 -420 493 -660 800 -216 278 -413 517
-542 661 -170 188 -238 280 -238 319 0 19 29 10 49 -16z m-1018 -22 c40 -33 1
-77 -46 -52 -32 17 -40 42 -19 57 24 18 38 16 65 -5z m1966 -133 c42 -40 71
-75 64 -77 -16 -5 -28 6 -114 101 -83 93 -59 82 50 -24z m3517 -383 c317 -327
465 -486 522 -562 98 -131 37 -88 -180 125 -325 321 -756 797 -756 835 0 17
174 -150 414 -398z m-884 327 c66 -74 130 -170 130 -194 0 -11 7 -19 15 -19
29 0 174 -161 470 -525 99 -121 234 -282 300 -358 159 -184 217 -257 212 -271
-8 -24 -45 -16 -90 21 -64 52 -404 445 -526 606 -54 72 -134 173 -177 222 -95
111 -146 186 -148 219 -1 21 -6 26 -28 26 -38 0 -141 114 -168 188 -12 30 -29
67 -39 81 -55 79 -21 82 49 4z m-3594 -70 c36 -43 204 -249 373 -458 534 -662
900 -1091 1147 -1346 78 -80 149 -161 157 -180 8 -19 38 -64 68 -99 87 -106
473 -551 640 -740 233 -263 267 -310 222 -310 -23 0 -114 86 -240 225 -117
130 -990 1125 -1114 1270 -193 227 -299 371 -299 406 0 14 -7 19 -27 19 -34 0
-37 3 -365 415 -145 182 -300 375 -344 430 -218 271 -334 445 -295 445 6 0 40
-35 77 -77z m-346 22 c78 -54 232 -258 215 -285 -14 -23 -120 68 -205 175 -57
73 -73 102 -66 121 7 19 14 18 56 -11z m-1005 -70 c14 -30 28 -55 33 -55 4 0
36 23 72 52 57 46 62 48 37 18 -51 -65 -77 -117 -88 -174 -18 -97 -106 -286
-134 -286 -20 0 -123 116 -129 148 -12 52 63 255 118 320 41 48 62 42 91 -23z
m2503 -53 c39 -38 72 -74 72 -81 0 -22 -34 6 -110 90 -86 95 -68 91 38 -9z
m186 29 c10 -9 89 -104 174 -211 307 -386 687 -830 982 -1150 170 -184 273
-308 472 -572 205 -269 228 -303 228 -333 0 -32 -79 53 -321 342 -120 143
-274 324 -343 401 -419 472 -1202 1420 -1255 1520 -24 46 11 48 63 3z m-1800
-45 c48 -40 89 -58 111 -50 11 5 15 -1 15 -19 0 -35 79 -150 206 -297 59 -69
178 -213 265 -320 87 -107 202 -243 256 -302 54 -59 124 -138 156 -175 31 -37
107 -122 169 -188 61 -66 210 -239 331 -385 122 -146 282 -335 357 -420 178
-203 210 -244 210 -264 0 -42 81 -151 132 -177 63 -32 284 -287 405 -467 50
-75 93 -172 75 -172 -16 0 -118 116 -328 370 -367 447 -543 641 -616 682 -23
13 -38 29 -38 41 0 28 -58 110 -170 237 -122 138 -200 238 -200 256 0 8 -28
44 -63 81 -183 196 -637 734 -922 1093 -99 124 -218 266 -265 316 -74 78 -154
194 -135 194 4 0 26 -15 49 -34z m177 -436 c221 -253 580 -680 886 -1054 694
-849 901 -1093 1105 -1301 75 -77 174 -185 220 -240 112 -135 262 -334 256
-340 -10 -10 -96 60 -187 154 -52 53 -250 274 -440 491 -190 217 -430 489
-533 603 -103 114 -202 229 -220 255 -52 77 -216 276 -365 443 -86 96 -162
193 -200 255 -76 123 -117 177 -262 340 -277 314 -631 748 -631 773 1 20 195
-178 371 -379z m6027 246 c61 -60 72 -76 51 -76 -25 0 -159 139 -159 164 0 11
27 -11 108 -88z m-2688 -133 c53 -54 123 -129 155 -167 72 -83 150 -147 170
-139 10 3 15 -1 15 -14 0 -26 59 -117 141 -218 36 -44 112 -138 170 -210 205
-252 429 -562 429 -592 0 -24 -19 -14 -84 47 -80 76 -163 176 -209 255 -19 33
-75 105 -124 160 -144 164 -255 294 -501 589 -265 317 -324 394 -316 407 10
17 60 -20 154 -118z m-3802 63 c108 -97 192 -199 192 -235 0 -6 58 -68 129
-138 70 -70 249 -270 397 -443 147 -173 299 -348 337 -388 71 -75 85 -114 42
-120 -27 -3 -73 41 -187 183 -53 66 -138 165 -188 220 -51 55 -124 143 -163
195 -39 52 -114 138 -167 190 -53 52 -134 140 -179 195 -107 128 -291 373
-291 385 0 20 18 9 78 -44z m930 -230 c118 -115 175 -192 170 -227 -3 -22 -12
-16 -92 61 -114 110 -246 272 -246 302 0 17 64 -35 168 -136z m-1132 106 c16
-15 79 -88 140 -162 61 -74 268 -306 460 -516 633 -690 1037 -1143 1192 -1338
52 -65 142 -169 201 -230 58 -61 171 -194 251 -296 80 -102 208 -259 285 -350
180 -212 269 -330 305 -406 61 -126 37 -105 -208 189 -223 266 -434 511 -756
878 -98 112 -267 305 -375 429 -248 284 -597 671 -861 955 -397 427 -607 679
-669 802 -37 75 -19 98 35 45z m-49 -234 c127 -122 378 -416 867 -1018 225
-277 294 -369 350 -471 50 -91 49 -131 -4 -104 -43 22 -121 116 -222 265 -278
409 -801 1020 -874 1020 -21 0 -24 3 -19 21 15 47 -122 246 -182 263 -24 7
-34 17 -38 38 -8 35 2 68 21 68 8 0 53 -37 101 -82z m4754 -155 c30 -32 86
-94 124 -138 38 -44 129 -141 202 -216 73 -74 133 -143 133 -151 0 -24 -26
-40 -61 -36 -27 2 -37 11 -58 50 -14 26 -73 98 -131 160 -132 140 -200 223
-262 317 -73 112 -48 119 53 14z m-3323 -14 c48 -17 54 -67 10 -90 -19 -10
-20 -9 -14 14 7 31 -14 55 -55 64 -16 3 -29 9 -29 14 0 12 51 11 88 -2z m2232
-145 c294 -282 1023 -1125 995 -1152 -4 -4 -36 25 -72 63 -367 397 -767 852
-783 890 -5 11 -59 70 -120 130 -105 103 -153 165 -131 165 6 0 56 -43 111
-96z m-2049 -106 c104 -74 279 -277 279 -323 0 -16 8 -25 26 -29 14 -4 69 -51
121 -104 90 -92 142 -151 474 -553 75 -90 199 -232 275 -314 231 -250 458
-520 607 -724 59 -79 62 -107 8 -60 -40 34 -412 450 -1096 1224 -203 230 -410
462 -459 514 -138 150 -319 401 -288 401 5 0 29 -14 53 -32z m1675 -273 c118
-133 194 -236 194 -262 0 -34 -37 -3 -92 77 -32 47 -113 154 -180 239 -68 85
-129 164 -136 175 -18 28 75 -71 214 -229z m938 -28 c157 -159 555 -651 541
-666 -11 -11 -233 229 -290 313 -15 22 -85 103 -155 180 -125 137 -210 241
-210 258 0 23 32 -1 114 -85z m-374 -207 c10 -5 83 -85 161 -177 78 -93 190
-222 249 -288 201 -227 235 -275 196 -275 -41 0 -528 564 -617 714 -22 38 -20
43 11 26z m957 -104 c30 -25 91 -126 76 -126 -21 0 -123 121 -123 144 0 13 20
5 47 -18z m-1192 -50 c52 -59 94 -124 95 -143 1 -45 -76 28 -131 122 -52 90
-33 102 36 21z m-1922 -258 c367 -383 550 -585 824 -913 110 -132 253 -301
318 -375 130 -150 239 -290 231 -297 -13 -14 -201 170 -409 401 -53 59 -211
243 -350 409 -138 166 -299 351 -356 412 -111 117 -278 311 -396 460 -82 104
-90 115 -76 115 5 0 101 -96 214 -212z m2637 62 c72 -74 210 -269 210 -298 -1
-36 -310 325 -310 363 0 21 42 -6 100 -65z m-2935 -252 c151 -154 331 -362
910 -1052 409 -488 505 -609 492 -622 -9 -9 -189 169 -376 371 -194 211 -291
323 -502 575 -84 102 -215 255 -289 340 -290 331 -413 493 -393 514 15 15 34
-1 158 -126z m2603 -36 c72 -74 135 -172 109 -172 -25 0 -197 202 -197 231 0
22 26 4 88 -59z m-2623 -182 c59 -93 77 -140 53 -140 -16 0 -45 29 -71 71 -14
24 -57 139 -57 155 0 20 29 -13 75 -86z m2655 -27 c32 -51 38 -83 16 -83 -21
0 -56 54 -63 95 -8 50 11 45 47 -12z m-2440 -275 c21 -29 73 -98 113 -153 154
-207 355 -435 721 -820 274 -287 316 -335 292 -335 -67 0 -634 577 -855 870
-47 63 -120 155 -161 203 -153 180 -169 201 -181 228 -6 16 -9 35 -5 44 10 28
36 15 76 -37z m2494 -424 c10 -25 -4 -37 -35 -30 -22 4 -34 0 -50 -17 l-21
-22 7 25 c14 50 85 82 99 44z"/>
<path d="M490 11668 c0 -17 93 -162 111 -174 23 -14 19 8 -9 58 -40 69 -101
139 -102 116z"/>
<path d="M1130 10784 c56 -64 62 -122 10 -94 -12 6 -24 10 -26 8 -7 -8 46
-105 68 -124 l21 -19 -7 38 c-4 21 -10 45 -13 53 -6 17 11 18 39 3 19 -10 20
-9 14 16 -14 54 -97 155 -128 155 -6 0 4 -16 22 -36z"/>
<path d="M1350 10503 c0 -17 95 -155 129 -187 45 -43 38 -18 -18 66 -50 74
-111 141 -111 121z"/>
<path d="M1240 10491 c0 -12 98 -158 111 -166 17 -11 9 29 -12 65 -48 79 -99
131 -99 101z"/>
<path d="M1380 10274 c0 -16 127 -163 303 -350 147 -157 211 -215 148 -135
-114 144 -450 505 -451 485z"/>
<path d="M1805 9919 c121 -134 145 -155 145 -128 0 13 -107 117 -155 151 -26
19 -25 16 10 -23z"/>
<path d="M2057 9785 c129 -141 311 -320 318 -313 10 10 -70 101 -196 223 -179
172 -238 216 -122 90z"/>
<path d="M825 12210 c-23 -44 -18 -82 18 -149 43 -83 150 -228 155 -212 2 6
-19 51 -48 99 -147 248 -136 307 15 82 79 -117 111 -157 120 -148 10 10 -30
81 -127 225 -48 73 -95 133 -103 133 -8 0 -21 -13 -30 -30z"/>
<path d="M766 12028 c17 -53 224 -379 261 -409 22 -19 -25 71 -104 201 -63
100 -153 230 -161 230 -2 0 0 -10 4 -22z"/>
<path d="M1070 11554 c0 -3 14 -25 31 -49 27 -38 30 -48 24 -85 -6 -35 -2 -51
25 -105 36 -71 164 -245 235 -321 66 -70 49 -33 -44 95 -104 142 -148 212
-157 246 -6 26 -5 27 20 21 34 -9 33 5 -6 62 -65 96 -128 163 -128 136z"/>
<path d="M1480 10872 c0 -12 82 -93 115 -114 73 -44 100 -6 40 57 -27 29 -40
36 -58 31 -14 -3 -38 2 -60 14 -20 11 -37 17 -37 12z"/>
<path d="M1739 10813 c49 -96 250 -351 423 -536 67 -73 135 -133 206 -182 58
-41 107 -73 110 -71 11 11 -164 243 -213 282 -55 43 -94 82 -158 157 -43 50
-62 65 -71 58 -23 -19 -33 -9 -231 241 -75 94 -97 111 -66 51z m476 -512 c27
-6 30 -12 33 -49 2 -24 -1 -42 -7 -42 -12 0 -149 166 -174 212 -13 23 2 11 50
-40 42 -45 80 -76 98 -81z"/>
<path d="M1710 10691 c0 -26 172 -251 192 -251 15 0 -17 52 -90 146 -74 96
-102 124 -102 105z"/>
<path d="M2410 10251 c0 -12 155 -244 174 -260 33 -27 25 -3 -24 79 -79 131
-150 217 -150 181z"/>
<path d="M2617 10105 c38 -80 48 -110 48 -152 0 -48 2 -52 22 -47 30 8 59 -10
126 -74 60 -59 72 -62 35 -9 -40 58 -261 362 -270 372 -5 6 12 -35 39 -90z"/>
<path d="M2856 9980 c31 -57 89 -128 98 -119 15 14 -90 169 -115 169 -6 0 2
-23 17 -50z"/>
<path d="M2906 9731 c-13 -21 91 -131 123 -131 33 0 -29 99 -78 125 -35 17
-38 18 -45 6z"/>
<path d="M4082 8198 c-21 -21 -13 -65 26 -140 43 -83 128 -204 149 -212 16 -6
53 27 53 48 0 8 -8 12 -23 9 -34 -7 -104 74 -156 177 -53 107 -39 117 41 29
l59 -64 -25 51 c-47 96 -93 133 -124 102z"/>
<path d="M4500 8154 c-25 -66 -3 -106 60 -108 33 -1 46 -6 58 -25 16 -23 16
-24 -8 -16 -41 12 -44 11 -48 -13 -4 -28 23 -62 50 -62 29 0 58 36 58 73 0 60
-95 177 -144 177 -9 0 -21 -12 -26 -26z"/>
<path d="M4490 7961 c0 -36 120 -217 128 -193 5 16 -74 155 -105 184 -13 12
-23 16 -23 9z"/>
<path d="M4840 7942 c0 -4 12 -25 27 -47 22 -33 27 -50 25 -94 -2 -42 3 -63
22 -96 53 -90 74 -80 31 14 -27 57 -27 81 0 81 8 0 15 8 15 18 0 24 -57 109
-80 122 -22 12 -40 13 -40 2z"/>
<path d="M4202 7780 c74 -109 107 -131 139 -91 24 30 24 33 -7 70 -34 41 -45
39 -32 -5 5 -20 6 -39 3 -42 -4 -4 -43 31 -88 78 l-80 85 65 -95z"/>
<path d="M4100 7791 c0 -19 34 -76 156 -261 101 -154 134 -196 134 -170 0 17
-106 191 -186 305 -85 120 -104 143 -104 126z"/>
<path d="M4531 7720 c-1 -36 56 -349 69 -387 7 -18 16 -33 21 -33 12 0 11 48
-3 148 -6 45 -8 85 -4 89 4 4 23 -10 41 -32 19 -22 34 -36 35 -31 0 16 -105
207 -132 239 l-27 32 0 -25z"/>
<path d="M4830 7636 c0 -66 35 -115 62 -88 12 12 -34 122 -51 122 -6 0 -11
-15 -11 -34z"/>
<path d="M4187 7393 c-15 -14 -6 -84 19 -137 25 -55 25 -76 -1 -76 -24 0 -24
-28 1 -78 46 -93 82 -95 58 -4 -16 60 -12 77 15 62 26 -13 30 -5 18 40 -12 44
-5 59 18 40 47 -39 11 59 -45 124 -30 33 -66 46 -83 29z"/>
<path d="M5273 6940 c-22 -17 -48 -42 -58 -56 -15 -23 -15 -30 -4 -51 13 -24
10 -28 -52 -87 -69 -65 -106 -112 -95 -123 12 -12 61 23 141 102 146 144 199
311 68 215z"/>
<path d="M5248 6683 c-148 -146 -227 -233 -210 -233 6 0 80 70 166 155 144
145 207 215 191 215 -4 0 -70 -62 -147 -137z"/>
<path d="M8563 7430 c-20 -12 -33 -28 -33 -40 0 -24 -2 -23 41 -8 40 13 89 46
89 59 0 16 -64 9 -97 -11z"/>
<path d="M3186 5332 c13 -48 240 -334 559 -705 192 -223 268 -303 245 -257
-21 41 -232 319 -421 555 -274 342 -401 477 -383 407z"/>
<path d="M4662 5052 c-35 -30 -92 -100 -92 -113 0 -36 82 37 115 101 22 42 15
45 -23 12z"/>
</g>
</svg>
